####
#
#	OBJ File Generated by LightWave3D
#	LightWave3D OBJ Export v2.3
#
####
o icosahedron.obj
mtllib icosahedron.mtl
g default
v -0.425325 0.223607 -0.138197
v -0.425325 -0.223607 0.138197
v -0.262866 -0.223607 -0.361803
v -0.262866 0.223607 0.361803
v 0 -0.5 -0
v 0 0.223607 -0.447214
v 0 0.5 -0
v 4.18546e-008 -0.223607 0.447214
v 0.262866 -0.223607 -0.361803
v 0.262866 0.223607 0.361803
v 0.425325 -0.223607 0.138197
v 0.425325 0.223607 -0.138197
vn -0.850651 0.447214 -0.276393
vn -0.850651 -0.447214 0.276393
vn -0.525731 -0.447214 -0.723607
vn -0.525731 0.447214 0.723607
vn -7.40195e-008 0.447214 -0.894427
vn 0 -1 1.50014e-008
vn 0 1 3.00028e-008
vn 7.24232e-008 -0.447214 0.894427
vn 0.525731 -0.447214 -0.723607
vn 0.525731 0.447214 0.723607
vn 0.850651 -0.447214 0.276393
vn 0.850651 0.447214 -0.276393
usemtl icosahedron
s 1
f 6//5 7//7 12//12
f 12//12 7//7 10//10
f 10//10 7//7 4//4
f 7//7 1//1 4//4
f 7//7 6//5 1//1
f 9//9 11//11 5//6
f 11//11 8//8 5//6
f 8//8 2//2 5//6
f 2//2 3//3 5//6
f 3//3 9//9 5//6
f 6//5 12//12 9//9
f 12//12 10//10 11//11
f 10//10 4//4 8//8
f 4//4 1//1 2//2
f 1//1 6//5 3//3
f 9//9 12//12 11//11
f 11//11 10//10 8//8
f 4//4 2//2 8//8
f 1//1 3//3 2//2
f 6//5 9//9 3//3
