<?xml version="1.0" encoding="UTF-8" standalone="no"?>
<!DOCTYPE svg PUBLIC "-//W3C//DTD SVG 1.1//EN"
 "http://www.w3.org/Graphics/SVG/1.1/DTD/svg11.dtd">
<!-- Generated by graphviz version 12.1.1 (20240910.0053)
 -->
<!-- Title: D Pages: 1 -->
<svg width="323pt" height="278pt"
 viewBox="0.00 0.00 322.50 278.00" xmlns="http://www.w3.org/2000/svg" xmlns:xlink="http://www.w3.org/1999/xlink">
<g id="graph0" class="graph" transform="scale(1 1) rotate(0) translate(4 274)">
<title>D</title>
<polygon fill="white" stroke="none" points="-4,4 -4,-274 318.5,-274 318.5,4 -4,4"/>
<g id="clust1" class="cluster">
<title>input_layer</title>
<polygon fill="none" stroke="black" points="0,-43 0,-227 83.5,-227 83.5,-43 0,-43"/>
<text text-anchor="middle" x="41.75" y="-209.7" font-family="Arial" font-size="14.00">Input Layer</text>
</g>
<g id="clust2" class="cluster">
<title>hidden_layer</title>
<polygon fill="none" stroke="black" points="103.5,-8 103.5,-262 199.75,-262 199.75,-8 103.5,-8"/>
<text text-anchor="middle" x="151.63" y="-244.7" font-family="Arial" font-size="14.00">Hidden Layer</text>
</g>
<g id="clust3" class="cluster">
<title>output_layer</title>
<polygon fill="none" stroke="black" points="219.75,-66 219.75,-204 314.5,-204 314.5,-66 219.75,-66"/>
<text text-anchor="middle" x="267.12" y="-186.7" font-family="Arial" font-size="14.00">Output Layer</text>
</g>
<!-- i1 -->
<g id="node1" class="node">
<title>i1</title>
<ellipse fill="#aaffaa" stroke="black" cx="41.25" cy="-177" rx="18.08" ry="18.08"/>
<text text-anchor="middle" x="41.25" y="-171.95" font-family="Times New Roman,serif" font-size="14.00">i1</text>
</g>
<!-- h1 -->
<g id="node4" class="node">
<title>h1</title>
<ellipse fill="#aaaaff" stroke="black" cx="151.13" cy="-36" rx="20.13" ry="20.13"/>
<text text-anchor="middle" x="151.13" y="-30.95" font-family="Times New Roman,serif" font-size="14.00">h1</text>
</g>
<!-- i1&#45;&gt;h1 -->
<g id="edge1" class="edge">
<title>i1&#45;&gt;h1</title>
<path fill="none" stroke="black" d="M52.99,-162.96C72.05,-138.05 111.9,-85.97 134.18,-56.85"/>
<polygon fill="black" stroke="black" points="135.55,-57.92 137.2,-52.89 132.78,-55.8 135.55,-57.92"/>
</g>
<!-- h2 -->
<g id="node5" class="node">
<title>h2</title>
<ellipse fill="#aaaaff" stroke="black" cx="151.13" cy="-94" rx="20.13" ry="20.13"/>
<text text-anchor="middle" x="151.13" y="-88.95" font-family="Times New Roman,serif" font-size="14.00">h2</text>
</g>
<!-- i1&#45;&gt;h2 -->
<g id="edge2" class="edge">
<title>i1&#45;&gt;h2</title>
<path fill="none" stroke="black" d="M55.91,-166.49C74.49,-152.19 107.89,-126.5 129.52,-109.85"/>
<polygon fill="black" stroke="black" points="130.39,-111.4 133.28,-106.96 128.25,-108.62 130.39,-111.4"/>
</g>
<!-- h3 -->
<g id="node6" class="node">
<title>h3</title>
<ellipse fill="#aaaaff" stroke="black" cx="151.13" cy="-152" rx="20.13" ry="20.13"/>
<text text-anchor="middle" x="151.13" y="-146.95" font-family="Times New Roman,serif" font-size="14.00">h3</text>
</g>
<!-- i1&#45;&gt;h3 -->
<g id="edge3" class="edge">
<title>i1&#45;&gt;h3</title>
<path fill="none" stroke="black" d="M59.11,-173.09C76.75,-169 104.66,-162.54 124.92,-157.84"/>
<polygon fill="black" stroke="black" points="125.26,-159.56 129.74,-156.72 124.47,-156.15 125.26,-159.56"/>
</g>
<!-- h4 -->
<g id="node7" class="node">
<title>h4</title>
<ellipse fill="#aaaaff" stroke="black" cx="151.13" cy="-210" rx="20.13" ry="20.13"/>
<text text-anchor="middle" x="151.13" y="-204.95" font-family="Times New Roman,serif" font-size="14.00">h4</text>
</g>
<!-- i1&#45;&gt;h4 -->
<g id="edge4" class="edge">
<title>i1&#45;&gt;h4</title>
<path fill="none" stroke="black" d="M58.63,-182.01C76.37,-187.44 104.85,-196.15 125.33,-202.42"/>
<polygon fill="black" stroke="black" points="124.67,-204.04 129.96,-203.83 125.69,-200.7 124.67,-204.04"/>
</g>
<!-- i2 -->
<g id="node2" class="node">
<title>i2</title>
<ellipse fill="#aaffaa" stroke="black" cx="41.25" cy="-69" rx="18.08" ry="18.08"/>
<text text-anchor="middle" x="41.25" y="-63.95" font-family="Times New Roman,serif" font-size="14.00">i2</text>
</g>
<!-- i2&#45;&gt;h1 -->
<g id="edge5" class="edge">
<title>i2&#45;&gt;h1</title>
<path fill="none" stroke="black" d="M58.63,-63.99C76.37,-58.56 104.85,-49.85 125.33,-43.58"/>
<polygon fill="black" stroke="black" points="125.69,-45.3 129.96,-42.17 124.67,-41.96 125.69,-45.3"/>
</g>
<!-- i2&#45;&gt;h2 -->
<g id="edge6" class="edge">
<title>i2&#45;&gt;h2</title>
<path fill="none" stroke="black" d="M59.11,-72.91C76.75,-77 104.66,-83.46 124.92,-88.16"/>
<polygon fill="black" stroke="black" points="124.47,-89.85 129.74,-89.28 125.26,-86.44 124.47,-89.85"/>
</g>
<!-- i2&#45;&gt;h3 -->
<g id="edge7" class="edge">
<title>i2&#45;&gt;h3</title>
<path fill="none" stroke="black" d="M55.91,-79.51C74.49,-93.81 107.89,-119.5 129.52,-136.15"/>
<polygon fill="black" stroke="black" points="128.25,-137.38 133.28,-139.04 130.39,-134.6 128.25,-137.38"/>
</g>
<!-- i2&#45;&gt;h4 -->
<g id="edge8" class="edge">
<title>i2&#45;&gt;h4</title>
<path fill="none" stroke="black" d="M52.99,-83.04C72.05,-107.95 111.9,-160.03 134.18,-189.15"/>
<polygon fill="black" stroke="black" points="132.78,-190.2 137.2,-193.11 135.55,-188.08 132.78,-190.2"/>
</g>
<!-- i3 -->
<g id="node3" class="node">
<title>i3</title>
<ellipse fill="#aaffaa" stroke="black" cx="41.25" cy="-123" rx="18.08" ry="18.08"/>
<text text-anchor="middle" x="41.25" y="-117.95" font-family="Times New Roman,serif" font-size="14.00">i3</text>
</g>
<!-- i3&#45;&gt;h1 -->
<g id="edge9" class="edge">
<title>i3&#45;&gt;h1</title>
<path fill="none" stroke="black" d="M55.91,-111.98C74.6,-96.91 108.27,-69.76 129.88,-52.32"/>
<polygon fill="black" stroke="black" points="130.87,-53.78 133.66,-49.28 128.67,-51.06 130.87,-53.78"/>
</g>
<!-- i3&#45;&gt;h2 -->
<g id="edge10" class="edge">
<title>i3&#45;&gt;h2</title>
<path fill="none" stroke="black" d="M59.11,-118.47C76.75,-113.73 104.66,-106.22 124.92,-100.78"/>
<polygon fill="black" stroke="black" points="125.38,-102.47 129.75,-99.48 124.47,-99.09 125.38,-102.47"/>
</g>
<!-- i3&#45;&gt;h3 -->
<g id="edge11" class="edge">
<title>i3&#45;&gt;h3</title>
<path fill="none" stroke="black" d="M59.11,-127.53C76.75,-132.27 104.66,-139.78 124.92,-145.22"/>
<polygon fill="black" stroke="black" points="124.47,-146.91 129.75,-146.52 125.38,-143.53 124.47,-146.91"/>
</g>
<!-- i3&#45;&gt;h4 -->
<g id="edge12" class="edge">
<title>i3&#45;&gt;h4</title>
<path fill="none" stroke="black" d="M55.91,-134.02C74.6,-149.09 108.27,-176.24 129.88,-193.68"/>
<polygon fill="black" stroke="black" points="128.67,-194.94 133.66,-196.72 130.87,-192.22 128.67,-194.94"/>
</g>
<!-- o1 -->
<g id="node8" class="node">
<title>o1</title>
<ellipse fill="#ffaaaa" stroke="black" cx="266.62" cy="-94" rx="20.13" ry="20.13"/>
<text text-anchor="middle" x="266.62" y="-88.95" font-family="Times New Roman,serif" font-size="14.00">o1</text>
</g>
<!-- h1&#45;&gt;o1 -->
<g id="edge13" class="edge">
<title>h1&#45;&gt;o1</title>
<path fill="none" stroke="black" d="M169.36,-44.81C188.95,-54.82 220.99,-71.19 242.68,-82.27"/>
<polygon fill="black" stroke="black" points="241.63,-83.7 246.88,-84.42 243.22,-80.59 241.63,-83.7"/>
</g>
<!-- o2 -->
<g id="node9" class="node">
<title>o2</title>
<ellipse fill="#ffaaaa" stroke="black" cx="266.62" cy="-152" rx="20.13" ry="20.13"/>
<text text-anchor="middle" x="266.62" y="-146.95" font-family="Times New Roman,serif" font-size="14.00">o2</text>
</g>
<!-- h1&#45;&gt;o2 -->
<g id="edge17" class="edge">
<title>h1&#45;&gt;o2</title>
<path fill="none" stroke="black" d="M166.04,-50.22C186.58,-71.21 224.99,-110.47 247.64,-133.62"/>
<polygon fill="black" stroke="black" points="246.14,-134.59 250.89,-136.94 248.64,-132.14 246.14,-134.59"/>
</g>
<!-- h2&#45;&gt;o1 -->
<g id="edge14" class="edge">
<title>h2&#45;&gt;o1</title>
<path fill="none" stroke="black" d="M171.64,-94C190.51,-94 219.22,-94 239.94,-94"/>
<polygon fill="black" stroke="black" points="239.85,-95.75 244.85,-94 239.85,-92.25 239.85,-95.75"/>
</g>
<!-- h2&#45;&gt;o2 -->
<g id="edge18" class="edge">
<title>h2&#45;&gt;o2</title>
<path fill="none" stroke="black" d="M169.36,-102.81C188.95,-112.82 220.99,-129.19 242.68,-140.27"/>
<polygon fill="black" stroke="black" points="241.63,-141.7 246.88,-142.42 243.22,-138.59 241.63,-141.7"/>
</g>
<!-- h3&#45;&gt;o1 -->
<g id="edge15" class="edge">
<title>h3&#45;&gt;o1</title>
<path fill="none" stroke="black" d="M169.36,-143.19C188.95,-133.18 220.99,-116.81 242.68,-105.73"/>
<polygon fill="black" stroke="black" points="243.22,-107.41 246.88,-103.58 241.63,-104.3 243.22,-107.41"/>
</g>
<!-- h3&#45;&gt;o2 -->
<g id="edge19" class="edge">
<title>h3&#45;&gt;o2</title>
<path fill="none" stroke="black" d="M171.64,-152C190.51,-152 219.22,-152 239.94,-152"/>
<polygon fill="black" stroke="black" points="239.85,-153.75 244.85,-152 239.85,-150.25 239.85,-153.75"/>
</g>
<!-- h4&#45;&gt;o1 -->
<g id="edge16" class="edge">
<title>h4&#45;&gt;o1</title>
<path fill="none" stroke="black" d="M166.04,-195.78C186.58,-174.79 224.99,-135.53 247.64,-112.38"/>
<polygon fill="black" stroke="black" points="248.64,-113.86 250.89,-109.06 246.14,-111.41 248.64,-113.86"/>
</g>
<!-- h4&#45;&gt;o2 -->
<g id="edge20" class="edge">
<title>h4&#45;&gt;o2</title>
<path fill="none" stroke="black" d="M169.36,-201.19C188.95,-191.18 220.99,-174.81 242.68,-163.73"/>
<polygon fill="black" stroke="black" points="243.22,-165.41 246.88,-161.58 241.63,-162.3 243.22,-165.41"/>
</g>
</g>
</svg>
