####
#
#	OBJ File Generated by LightWave3D
#	LightWave3D OBJ Export v2.3
#
####
o crisscross.obj
mtllib crisscross.mtl
g default
v -1.5 -0.5 -0
v -1.5 -0.353553 0.353553
v -1.5 -0.353553 -0.353553
v -1.5 0 0.5
v -1.5 0 -0.5
v -1.5 0.353553 0.353553
v -1.5 0.353553 -0.353553
v -1.5 0.5 -0
v -0.5 -1.5 -0
v -0.5 -0.5 -0
v -0.5 0 1.5
v -0.5 0 0.5
v -0.5 0 -0.5
v -0.5 0 -1.5
v -0.5 0.5 -0
v -0.5 1.5 -0
v -0.353553 -1.5 0.353553
v -0.353553 -1.5 -0.353553
v -0.353553 -0.353553 1.5
v -0.353553 -0.353553 0.353553
v -0.353553 -0.353553 -0.353553
v -0.353553 -0.353553 -1.5
v -0.353553 0.353553 1.5
v -0.353553 0.353553 -0.353553
v -0.353553 0.353553 -1.5
v -0.353553 1.5 0.353553
v -0.353553 1.5 -0.353553
v -0.353553 0.353553 0.353553
v -9.18485e-017 -0.5 -1.5
v -9.18485e-017 0.5 -1.5
v -9.18485e-017 1.5 0.5
v -9.18485e-017 1.5 -0.5
v -3.06162e-017 -0.5 -0.5
v -3.06162e-017 0.5 -0.5
v 3.06162e-017 -0.5 0.5
v 3.06162e-017 0.5 0.5
v 9.18485e-017 -1.5 0.5
v 9.18485e-017 -1.5 -0.5
v 9.18485e-017 -0.5 1.5
v 9.18485e-017 0.5 1.5
v 0.353553 -1.5 0.353553
v 0.353553 -1.5 -0.353553
v 0.353553 -0.353553 1.5
v 0.353553 -0.353553 0.353553
v 0.353553 -0.353553 -0.353553
v 0.353553 -0.353553 -1.5
v 0.353553 0.353553 1.5
v 0.353553 0.353553 0.353553
v 0.353553 0.353553 -0.353553
v 0.353553 0.353553 -1.5
v 0.353553 1.5 0.353553
v 0.353553 1.5 -0.353553
v 0.5 -1.5 -0
v 0.5 -0.5 -0
v 0.5 0 1.5
v 0.5 0 0.5
v 0.5 0 -0.5
v 0.5 0 -1.5
v 0.5 0.5 -0
v 0.5 1.5 -0
v 1.5 -0.5 -0
v 1.5 -0.353553 0.353553
v 1.5 -0.353553 -0.353553
v 1.5 0 0.5
v 1.5 0 -0.5
v 1.5 0.353553 0.353553
v 1.5 0.353553 -0.353553
v 1.5 0.5 -0
vn -0.879465 -0.475963 -0
vn -0.879465 0 -0.475963
vn -0.879465 4.25544e-008 0.475963
vn -0.879465 0.475963 -0
vn -0.707107 -0.707107 -0
vn -0.707107 0 -0.707107
vn -0.707107 4.56194e-008 0.707107
vn -0.707107 0.707107 1.14049e-008
vn -0.621876 0.475963 0.621876
vn -0.621876 -0.621876 0.475963
vn -0.621876 -0.621876 -0.475963
vn -0.621876 -0.475963 0.621876
vn -0.621876 -0.475963 -0.621876
vn -0.621876 0.475963 -0.621876
vn -0.621876 0.621876 -0.475963
vn -0.621876 0.621876 0.475963
vn -0.57735 -0.57735 0.57735
vn -0.57735 -0.57735 -0.57735
vn -0.57735 0.57735 -0.57735
vn -0.57735 0.57735 0.57735
vn -0.475963 -0.879465 -0
vn -0.475963 -0.621876 0.621876
vn -0.475963 -0.621876 -0.621876
vn -0.475963 0 -0.879465
vn -0.475963 1.41848e-008 0.879465
vn -0.475963 0.621876 -0.621876
vn -0.475963 0.621876 0.621876
vn -0.475963 0.879465 1.41848e-008
vn -1.41848e-008 0.475963 0.879465
vn -1.14049e-008 0.707107 0.707107
vn 0 -0.879465 0.475963
vn 0 -0.879465 -0.475963
vn 0 -0.707107 0.707107
vn 0 -0.707107 -0.707107
vn 0 -0.475963 0.879465
vn 0 -0.475963 -0.879465
vn 0 0.475963 -0.879465
vn 0 0.707107 -0.707107
vn 0 0.879465 0.475963
vn 0 0.879465 -0.475963
vn 0.475963 -0.879465 -0
vn 0.475963 -0.621876 0.621876
vn 0.475963 -0.621876 -0.621876
vn 0.475963 0 0.879465
vn 0.475963 0 -0.879465
vn 0.475963 0.621876 0.621876
vn 0.475963 0.621876 -0.621876
vn 0.475963 0.879465 -0
vn 0.57735 -0.57735 0.57735
vn 0.57735 -0.57735 -0.57735
vn 0.57735 0.57735 0.57735
vn 0.57735 0.57735 -0.57735
vn 0.621876 -0.621876 0.475963
vn 0.621876 -0.621876 -0.475963
vn 0.621876 -0.475963 0.621876
vn 0.621876 -0.475963 -0.621876
vn 0.621876 0.475963 0.621876
vn 0.621876 0.475963 -0.621876
vn 0.621876 0.621876 0.475963
vn 0.621876 0.621876 -0.475963
vn 0.707107 -0.707107 -0
vn 0.707107 0 0.707107
vn 0.707107 0 -0.707107
vn 0.707107 0.707107 -0
vn 0.879465 -0.475963 -0
vn 0.879465 0 0.475963
vn 0.879465 0 -0.475963
vn 0.879465 0.475963 -0
usemtl crisscross
s 1
f 3//23 1//21 2//22 4//25 6//27 8//28 7//26 5//24
f 67//47 68//48 66//46 64//44 62//42 61//41 63//43 65//45
f 24//19 13//6 5//24 7//26
f 65//45 57//63 49//52 67//47
f 4//25 12//7 28//20 6//27
f 56//62 64//44 66//46 48//51
f 12//7 4//25 2//22 20//17
f 5//24 13//6 21//18 3//23
f 46//54 29//32 22//11 14//2 25//15 30//40 50//60 58//67
f 47//59 40//39 23//16 11//3 19//10 39//31 43//53 55//66
f 49//52 57//63 58//67 50//60
f 55//66 56//62 48//51 47//59
f 14//2 13//6 24//19 25//15
f 12//7 11//3 23//16 28//20
f 13//6 14//2 22//11 21//18
f 11//3 12//7 20//17 19//10
f 58//67 57//63 45//50 46//54
f 56//62 55//66 43//53 44//49
f 8//28 15//8 24//19 7//26
f 59//64 68//48 67//47 49//52
f 15//8 8//28 6//27 28//20
f 68//48 59//64 48//51 66//46
f 64//44 56//62 44//49 62//42
f 1//21 10//5 20//17 2//22
f 54//61 61//41 62//42 44//49
f 10//5 1//21 3//23 21//18
f 61//41 54//61 45//50 63//43
f 57//63 65//45 63//43 45//50
f 30//40 34//38 49//52 50//60
f 36//30 40//39 47//59 48//51
f 34//38 30//40 25//15 24//19
f 40//39 36//30 28//20 23//16
f 22//11 29//32 33//34 21//18
f 20//17 35//33 39//31 19//10
f 45//50 33//34 29//32 46//54
f 43//53 39//31 35//33 44//49
f 27//14 16//4 26//9 31//29 51//57 60//68 52//58 32//37
f 42//56 53//65 41//55 37//35 17//12 9//1 18//13 38//36
f 49//52 34//38 32//37 52//58
f 42//56 38//36 33//34 45//50
f 60//68 59//64 49//52 52//58
f 54//61 53//65 42//56 45//50
f 59//64 60//68 51//57 48//51
f 53//65 54//61 44//49 41//55
f 31//29 36//30 48//51 51//57
f 35//33 37//35 41//55 44//49
f 36//30 31//29 26//9 28//20
f 37//35 35//33 20//17 17//12
f 16//4 15//8 28//20 26//9
f 10//5 9//1 17//12 20//17
f 24//19 15//8 16//4 27//14
f 9//1 10//5 21//18 18//13
f 27//14 32//37 34//38 24//19
f 21//18 33//34 38//36 18//13
